<svg width="20" height="8" viewBox="0 0 20 8" fill="none" xmlns="http://www.w3.org/2000/svg">
<path d="M8.64273 7.02679L8.50273 6.80279C8.5494 6.54146 8.6054 6.22879 8.67073 5.86479C8.73606 5.50079 8.8014 5.11813 8.86673 4.71679C8.9414 4.31546 9.00206 3.91413 9.04873 3.51279C9.10473 3.11146 9.15139 2.72879 9.18873 2.36479C9.23539 1.99146 9.2634 1.66013 9.27273 1.37079L8.51673 1.21679C8.48873 1.07679 8.4794 0.922793 8.48873 0.754793C8.89006 0.71746 9.3054 0.67546 9.73473 0.628793C10.1641 0.582126 10.5701 0.512126 10.9527 0.418793L11.2327 0.838793L10.5747 3.75079L10.7427 3.79279C10.8921 3.49413 11.0414 3.20013 11.1907 2.91079C11.3401 2.62146 11.4894 2.34146 11.6387 2.07079C11.7881 1.79079 11.9374 1.52946 12.0867 1.28679C12.2454 1.03479 12.4041 0.80146 12.5627 0.586793C12.7214 0.558793 12.8614 0.540126 12.9827 0.530793C13.1134 0.512126 13.2394 0.498126 13.3607 0.488793C13.4914 0.470126 13.6221 0.460793 13.7527 0.460793L13.8647 0.642793L13.4727 2.28079C13.3701 2.31813 13.2627 2.36479 13.1507 2.42079C13.0481 2.47679 12.9407 2.54213 12.8287 2.61679C12.7261 2.68213 12.6187 2.75213 12.5067 2.82679C12.3574 2.93879 12.2081 3.06946 12.0587 3.21879C11.9094 3.35879 11.7601 3.51279 11.6107 3.68079C11.4707 3.84879 11.3307 4.03079 11.1907 4.22679C11.0507 4.42279 10.9061 4.62813 10.7567 4.84279L10.4347 7.02679H8.64273Z" fill="#41BD66"/>
<path d="M16.3658 7.19479C15.8618 7.19479 15.4138 7.08279 15.0218 6.85879C14.6391 6.62546 14.3358 6.30346 14.1118 5.89279C13.8971 5.48213 13.7851 5.00146 13.7758 4.45079C13.7665 4.11479 13.8131 3.76479 13.9158 3.40079C14.0278 3.03679 14.1771 2.68213 14.3638 2.33679C14.5505 1.99146 14.7511 1.68813 14.9658 1.42679C15.2365 1.24946 15.5211 1.08613 15.8198 0.936793C16.1185 0.787459 16.4218 0.666126 16.7298 0.572793C17.0471 0.470126 17.3411 0.418793 17.6118 0.418793C17.9291 0.418793 18.1998 0.493459 18.4238 0.642793C18.6571 0.792126 18.8391 1.04413 18.9698 1.39879C19.1005 1.74413 19.1705 2.22013 19.1798 2.82679L18.8298 3.41479C18.2138 3.67613 17.6025 3.89079 16.9958 4.05879C16.3985 4.21746 15.8105 4.33879 15.2318 4.42279V3.94679C15.6331 3.82546 16.0065 3.68079 16.3518 3.51279C16.7065 3.33546 17.0798 3.12079 17.4718 2.86879C17.4905 2.57013 17.4951 2.32279 17.4858 2.12679C17.4765 1.92146 17.4531 1.74879 17.4158 1.60879C17.3878 1.45946 17.3365 1.31946 17.2618 1.18879C17.1498 1.18879 17.0285 1.19813 16.8978 1.21679C16.7671 1.23546 16.6458 1.26346 16.5338 1.30079C16.3565 1.57146 16.1931 1.89813 16.0438 2.28079C15.9038 2.65413 15.7965 3.04613 15.7218 3.45679C15.6471 3.85813 15.6145 4.24079 15.6238 4.60479C15.6331 4.95013 15.6891 5.27213 15.7918 5.57079C15.9038 5.86946 16.0765 6.10746 16.3098 6.28479C16.4965 6.25679 16.7345 6.16813 17.0238 6.01879C17.3225 5.86013 17.6258 5.68279 17.9338 5.48679C18.2511 5.29079 18.5218 5.11813 18.7458 4.96879L19.0958 5.37479C18.9558 5.51479 18.7785 5.69679 18.5638 5.92079C18.3585 6.14479 18.1345 6.36413 17.8918 6.57879C17.6585 6.78413 17.4391 6.95213 17.2338 7.08279C17.0938 7.11079 16.9491 7.13413 16.7998 7.15279C16.6505 7.18079 16.5058 7.19479 16.3658 7.19479Z" fill="#41BD66"/>
<path d="M3.54273 1.02679V3.8188M3.54273 3.8188V6.6108M3.54273 3.8188L5.51698 1.84455M3.54273 3.8188L1.56849 5.79304M3.54273 3.8188L6.33474 3.8188M3.54273 3.8188L0.750732 3.8188M3.54273 3.8188L5.51698 5.79304M3.54273 3.8188L1.56849 1.84455" stroke="#41BD66" stroke-width="0.75" stroke-linecap="round" stroke-linejoin="round"/>
</svg>
